<svg width="27" height="16" fill="none" xmlns="http://www.w3.org/2000/svg"><path d="M25.24 6.667H1.76c-.765 0-1.385.567-1.385 1.266v.134c0 .7.62 1.266 1.385 1.266h23.48c.765 0 1.385-.567 1.385-1.266v-.134c0-.7-.62-1.266-1.385-1.266zm0 6.666H1.76c-.765 0-1.385.567-1.385 1.267v.133c0 .7.62 1.267 1.385 1.267h23.48c.765 0 1.385-.567 1.385-1.267V14.6c0-.7-.62-1.267-1.385-1.267zM25.24 0H1.76C.995 0 .375.567.375 1.267V1.4c0 .7.62 1.267 1.385 1.267h23.48c.765 0 1.385-.567 1.385-1.267v-.133c0-.7-.62-1.267-1.385-1.267z" fill="#fff"/></svg>