<svg width="50" height="45" fill="none" xmlns="http://www.w3.org/2000/svg"><path d="M10.417 41.755a7.158 7.158 0 01-5.156-2.218 7.723 7.723 0 01-2.136-5.354 7.72 7.72 0 012.136-5.355 7.158 7.158 0 015.156-2.217c1.934 0 3.788.797 5.156 2.217a7.722 7.722 0 012.135 5.355 7.723 7.723 0 01-2.135 5.354 7.158 7.158 0 01-5.156 2.218zm0-18.39c-2.763 0-5.413 1.14-7.366 3.169C1.097 28.562 0 31.314 0 34.183c0 2.869 1.097 5.62 3.051 7.649C5.004 43.86 7.654 45 10.417 45c2.762 0 5.412-1.14 7.365-3.168 1.954-2.029 3.051-4.78 3.051-7.65 0-2.868-1.097-5.62-3.05-7.648-1.954-2.029-4.604-3.169-7.366-3.169zm20.416-4.326h8.75v-3.895h-6.666L28.875 8.07c-.604-1.082-1.792-1.796-3.042-1.796-.979 0-1.875.411-2.5 1.082l-7.708 7.983c-.646.67-1.042 1.536-1.042 2.618 0 1.363.688 2.51 1.771 3.18l6.98 4.392v10.817h3.75V22.284l-4.688-3.57 4.833-5.084 3.604 5.408zm8.75 22.716a7.158 7.158 0 01-5.156-2.218 7.723 7.723 0 01-2.135-5.354c0-2.009.768-3.935 2.135-5.355a7.158 7.158 0 015.156-2.217c1.934 0 3.789.797 5.156 2.217a7.722 7.722 0 012.136 5.355 7.722 7.722 0 01-2.136 5.354 7.157 7.157 0 01-5.156 2.218zm0-18.39c-2.762 0-5.412 1.14-7.365 3.169-1.954 2.028-3.051 4.78-3.051 7.649 0 2.869 1.097 5.62 3.05 7.649C34.172 43.86 36.822 45 39.584 45c1.368 0 2.723-.28 3.987-.823a10.398 10.398 0 003.379-2.345 10.855 10.855 0 002.258-3.51 11.18 11.18 0 00.793-4.14c0-1.42-.27-2.827-.793-4.139a10.855 10.855 0 00-2.258-3.51 10.398 10.398 0 00-3.38-2.344 10.083 10.083 0 00-3.986-.824zm-6.25-15.577c2.084 0 3.75-1.73 3.75-3.894 0-2.163-1.666-3.894-3.75-3.894-2.083 0-3.75 1.73-3.75 3.894s1.667 3.894 3.75 3.894z" fill="#fff"/></svg>