<svg width="34" height="34" fill="none" xmlns="http://www.w3.org/2000/svg"><path fill-rule="evenodd" clip-rule="evenodd" d="M10.468 1.495c1.645-.076 2.17-.093 6.359-.093 4.19 0 4.714.019 6.358.093 1.643.074 2.765.336 3.747.716a7.59 7.59 0 012.731 1.781 7.54 7.54 0 011.778 2.73c.382.982.642 2.104.718 3.744.076 1.648.093 2.173.093 6.361 0 4.19-.019 4.714-.093 6.36-.074 1.64-.336 2.762-.718 3.743a7.567 7.567 0 01-1.778 2.733 7.564 7.564 0 01-2.731 1.778c-.982.382-2.104.643-3.744.718-1.647.076-2.171.093-6.361.093-4.19 0-4.714-.018-6.36-.093-1.64-.074-2.762-.336-3.743-.718a7.567 7.567 0 01-2.733-1.778 7.56 7.56 0 01-1.78-2.731c-.38-.982-.64-2.104-.716-3.744-.076-1.648-.093-2.172-.093-6.36 0-4.19.018-4.715.093-6.359.074-1.643.336-2.765.716-3.747a7.567 7.567 0 011.781-2.731 7.561 7.561 0 012.73-1.78c.982-.38 2.104-.64 3.744-.716h.002zM23.06 4.27c-1.627-.074-2.115-.09-6.233-.09-4.118 0-4.606.016-6.233.09-1.505.069-2.32.32-2.865.532a4.79 4.79 0 00-1.774 1.152A4.784 4.784 0 004.803 7.73c-.212.544-.463 1.36-.532 2.865-.074 1.627-.09 2.115-.09 6.233 0 4.118.016 4.606.09 6.233.069 1.505.32 2.32.532 2.865.247.669.64 1.276 1.152 1.774a4.787 4.787 0 001.775 1.15c.544.212 1.36.463 2.865.532 1.627.074 2.113.09 6.233.09 4.12 0 4.606-.016 6.233-.09 1.505-.069 2.32-.32 2.865-.532a4.79 4.79 0 001.774-1.152 4.789 4.789 0 001.152-1.774c.212-.544.463-1.36.532-2.865.074-1.627.09-2.114.09-6.233 0-4.118-.016-4.606-.09-6.233-.069-1.505-.32-2.32-.532-2.865A4.79 4.79 0 0027.7 5.955a4.786 4.786 0 00-1.774-1.152c-.544-.212-1.36-.463-2.865-.532zm-8.203 17.311a5.145 5.145 0 103.704-9.6 5.146 5.146 0 00-3.704 9.6zm-3.637-10.36a7.928 7.928 0 1111.212 11.212A7.928 7.928 0 0111.22 11.221zm15.293-1.142a1.876 1.876 0 10-2.575-2.728 1.876 1.876 0 002.575 2.728z" fill="#F8F8F8"/></svg>