<svg width="30" height="30" fill="none" xmlns="http://www.w3.org/2000/svg"><path d="M2.591 7.832c.242-.307.56-.723.816-1.02.763-.82.862-.928 1.557-1.535.207-.16.451-.352.69-.533-1.764 1.412-1.988 2.976-.37 3.942-.002 0-.002 0-.002.003 2.263 1.29 7.224 1.011 11.138-.642 3.791-1.6 5.19-3.888 3.32-5.248-1.643-.292-3.602-.325-5.674-.063l-.215-.336.178-.557c1.219-.104 2.376-.08 3.375.082.242.039.56.105.798.153a16.562 16.562 0 012.034.593c.447.167.64.242.998.41.4.173.79.37 1.166.587 2.982 1.773 1.128 5.01-4.133 7.227-5.246 2.21-11.93 2.558-14.927.805 0-.002-.005-.005-.013-.007h.006c-1.636-.98-1.808-2.403-.742-3.86zm13.65 12.4l-.043-1.992-1.497-1.575c-4.946 1.06-9.808.832-12.511-.674-.01-.01-.032-.02-.041-.03C.619 15.07.24 13.92.355 12.67c-.358 1.829-.387 2.489-.335 4.054.063.98.662 1.884 1.866 2.596l.009.01c2.882 1.695 8.886 2.063 14.345.903zm6.243 2.282c-6.981 2.649-15.718 2.805-19.514.354.41.947.968 1.83 1.655 2.622 3.483 2.25 11.503 2.106 17.908-.325 3.748-1.421 6.114-3.313 6.735-5.085l.174-.534c.414-1.352.492-2.479.558-3.481-.075 2.176-2.785 4.651-7.516 6.449zm-15.41 5.101c.219.198.909.999 4.404 1.884.944.197 3.323.831 7.717-.09l.026-.379-.347-.515c-4.077.912-8.605.607-11.8-.9zM17.16 11.854l3.712 2.661s.794.541.045.921c-.747.377-2.664 1.298-2.664 1.298l-1.894-.669-.95.4 1.676 1.376.013 2.142.985-.414.652-1.809s2.005-.73 2.8-1.005c.8-.269.693.651.693.651l-.394 4.389 1.308-.55 2.154-5.921s1.142-.525 1.945-.986c.802-.462 1.077-1.227 1.077-1.227s-.782-.319-1.683-.062c-.901.254-2.076.706-2.076.706l-6.095-2.449-1.304.548zm-7.853-8.42l2.52 1.898.688-.097-1.371-1.704s-.299-.352.103-.436a140.72 140.72 0 011.427-.283l.769.582.518-.073-.587-.882.31-.979-.501.069-.594.745s-1.04.092-1.45.125c-.413.03-.236-.389-.236-.389l.79-2.01-.692.096-1.824 2.511s-.607.105-1.047.224c-.442.118-.674.44-.674.44s.323.248.78.239c.46-.009 1.071-.076 1.071-.076zM21.762 27.83l-1.63-.806-.376.124.966.817s.206.166-.01.255c-.217.088-.77.303-.77.303l-.455-.193-.271.093.38.382-.038.559.283-.092.211-.454s.574-.162.803-.219c.227-.059.175.194.175.194L20.815 30l.377-.124.738-1.595s.326-.121.56-.232a.716.716 0 00.327-.316s-.208-.108-.464-.054c-.258.051-.59.152-.59.152z" fill="#fff"/></svg>