<svg width="52" height="52" fill="none" xmlns="http://www.w3.org/2000/svg"><path d="M13.722 28.889a3.612 3.612 0 100-7.223 3.612 3.612 0 000 7.223zm15.89-3.611a3.61 3.61 0 11-7.222 0 3.61 3.61 0 017.221 0zm8.666 3.61a3.611 3.611 0 100-7.221 3.611 3.611 0 000 7.222zm-20.945 7.945a3.611 3.611 0 11-7.222 0 3.611 3.611 0 017.222 0zM26 40.444a3.611 3.611 0 100-7.222 3.611 3.611 0 000 7.222zM0 9.028A9.028 9.028 0 019.028 0h33.944A9.028 9.028 0 0152 9.028v33.944A9.027 9.027 0 0142.972 52H9.028A9.028 9.028 0 010 42.972V9.028zM9.028 3.61A5.417 5.417 0 003.61 9.028v2.528h44.78V9.028a5.417 5.417 0 00-5.417-5.417H9.028zM3.61 42.972a5.417 5.417 0 005.417 5.417h33.944a5.417 5.417 0 005.417-5.417V15.167H3.61v27.805z" fill="#fff"/></svg>