<svg width="34" height="34" fill="none" xmlns="http://www.w3.org/2000/svg"><g clip-path="url(#clip0_72_17)"><path d="M33.461 6.923a13.08 13.08 0 01-3.75 1.028 6.549 6.549 0 002.871-3.615 13.041 13.041 0 01-4.148 1.584 6.534 6.534 0 00-11.13 5.96A18.55 18.55 0 013.838 5.054a6.53 6.53 0 00-.884 3.284 6.534 6.534 0 002.906 5.438 6.516 6.516 0 01-2.959-.818v.084a6.534 6.534 0 005.24 6.406 6.58 6.58 0 01-2.95.112 6.535 6.535 0 006.102 4.535 13.108 13.108 0 01-8.113 2.797c-.521 0-1.042-.03-1.56-.091a18.474 18.474 0 0010.013 2.935c12.017 0 18.587-9.953 18.587-18.585 0-.28-.007-.564-.02-.845a13.28 13.28 0 003.257-3.379l.003-.004z" fill="#F8F8F8"/></g><defs><clipPath id="clip0_72_17"><path fill="#fff" transform="translate(.308)" d="M0 0h33.654v33.654H0z"/></clipPath></defs></svg>