<svg width="27" height="16" viewBox="0 0 27 16" fill="none" xmlns="http://www.w3.org/2000/svg">
<path d="M25.2396 6.66667H1.76042C0.995272 6.66667 0.375 7.23378 0.375 7.93334V8.06667C0.375 8.76623 0.995272 9.33334 1.76042 9.33334H25.2396C26.0047 9.33334 26.625 8.76623 26.625 8.06667V7.93334C26.625 7.23378 26.0047 6.66667 25.2396 6.66667Z" fill="white"/>
<path d="M25.2396 13.3333H1.76042C0.995272 13.3333 0.375 13.9004 0.375 14.6V14.7333C0.375 15.4329 0.995272 16 1.76042 16H25.2396C26.0047 16 26.625 15.4329 26.625 14.7333V14.6C26.625 13.9004 26.0047 13.3333 25.2396 13.3333Z" fill="white"/>
<path d="M25.2396 0H1.76042C0.995272 0 0.375 0.567106 0.375 1.26667V1.4C0.375 2.09956 0.995272 2.66667 1.76042 2.66667H25.2396C26.0047 2.66667 26.625 2.09956 26.625 1.4V1.26667C26.625 0.567106 26.0047 0 25.2396 0Z" fill="white"/>
</svg>
